<svg width="24" height="24" viewBox="0 0 24 24" fill="none" xmlns="http://www.w3.org/2000/svg">
<path d="M12.217 20.0979L4.93684 20.098C4.37542 20.0978 3.82584 19.6623 3.79741 19.0886L3.79492 16.7258C3.79499 16.3947 3.80446 16.1798 4.02098 15.9023C4.1073 15.7917 4.17304 15.8178 4.17297 15.6546L4.1743 13.0367C4.17632 12.8178 4.20592 12.6063 4.23262 12.3889L4.33614 11.6883C4.86625 8.85106 6.88368 6.68796 9.65643 5.94989C10.5595 5.70949 10.0571 5.90988 10.2438 5.38995C10.5204 4.61934 10.9584 4.17059 11.8206 4.05881L11.8211 4.05844C12.6178 3.99591 13.3044 4.41056 13.6406 5.13867L13.6876 5.25C13.7603 5.43577 13.7706 5.61178 13.78 5.80824L14.4431 5.96299C16.4456 6.53756 17.9265 7.71991 18.9377 9.50977L19.3978 10.6358L19.5978 11.3321C19.6453 11.4778 19.6603 11.6441 19.6878 11.7949L19.782 12.4746C19.8283 12.9935 19.8175 13.435 19.8173 13.9548L19.8156 15.7412C19.9191 15.8928 20.007 15.8693 20.1095 16.1309L20.125 16.1684C20.2258 16.4366 20.2018 16.7188 20.2021 16.9994L20.2024 18.6967C20.2021 19.2583 20.1434 19.7751 19.5065 20.0121L19.3878 20.0534C19.1136 20.1329 18.837 20.098 18.5541 20.0981L12.217 20.0979ZM11.8786 4.72697C11.3404 4.79449 10.9293 5.166 10.8727 5.7101L12.1518 5.64694C12.3069 5.64656 12.4662 5.64028 12.6206 5.65275L12.9453 5.68029C13.0015 5.68631 13.0656 5.70202 13.1214 5.69831C13.0361 5.10877 12.4724 4.66071 11.8786 4.72697ZM11.4815 6.31831C8.1239 6.52601 5.63486 8.5883 4.9694 11.918L4.87452 12.5232C4.84846 12.7358 4.82596 12.9482 4.82556 13.1622L4.81935 15.505L12.5334 15.504L19.1705 15.5041L19.17 13.7521C19.1699 13.4434 19.1835 13.1274 19.1633 12.8196C18.9294 9.25163 16.4954 6.75846 12.963 6.36115L12.6517 6.32342C12.2853 6.29548 11.9035 6.31526 11.5355 6.31688L11.4815 6.31831ZM14.962 16.1685L14.2163 16.1692C14.0858 16.1693 13.9484 16.1607 13.8188 16.1748L13.8141 19.0788C13.8141 19.1907 13.8021 19.3136 13.8173 19.4239L15.009 19.4204L16.1552 19.4254L16.1547 16.1737C16.0277 16.1556 15.8845 16.1682 15.7559 16.1682L14.962 16.1685ZM18.173 16.1685L16.8158 16.173L16.8096 19.4211L18.1935 19.4204L18.9102 19.4201C19.1676 19.4194 19.494 19.3981 19.5458 19.0555C19.5643 18.9326 19.5522 18.7927 19.5522 18.6676L19.5508 17.0247C19.5503 16.7635 19.6073 16.2008 19.2099 16.1711L18.173 16.1685ZM4.76137 16.1703C4.61413 16.224 4.44892 16.365 4.44058 16.5327L4.43866 18.7127C4.43913 19.1431 4.44142 19.4241 5.00709 19.4224L6.84979 19.4204L7.15227 19.4215L7.15701 16.1702L4.76137 16.1703ZM7.81954 16.1685L7.80932 19.4291L10.1593 19.4204L10.1596 16.1694L7.81954 16.1685ZM10.8194 16.1687L10.8144 19.1017C10.8141 19.2077 10.8001 19.3268 10.8168 19.4304L13.132 19.4222L13.1619 16.4004C13.1618 16.3409 13.1747 16.2222 13.1532 16.1701L10.8194 16.1687Z" fill="black"/>
</svg>
